Coordinates
version=1
nRows=17
nColumns=24
inDegrees=yes

Units are S.I. units (second, meters, Newtons, ...)
Angles are in degrees.

endheader
time	pelvis_tilt	pelvis_list	pelvis_rotation	pelvis_tx	pelvis_ty	pelvis_tz	hip_flexion_r	hip_adduction_r	hip_rotation_r	knee_angle_r	ankle_angle_r	subtalar_angle_r	mtp_angle_r	hip_flexion_l	hip_adduction_l	hip_rotation_l	knee_angle_l	ankle_angle_l	subtalar_angle_l	mtp_angle_l	lumbar_extension	lumbar_bending	lumbar_rotation
      3.59500000	     -4.15302994	     -5.91823001	      0.58652159	     -0.08316029	     -0.01433036	     -0.13676140	     11.04115289	     14.97932883	     11.43346613	    -18.48252029	      0.25361269	     -6.42925621	      6.76926612	     31.28076610	     -8.15533916	     -4.95167292	    -67.89201851	     26.18051488	     14.72592631	   -120.91203138	      4.94681955	      4.73330634	     -1.51558370
      3.60000000	     -4.03232802	     -5.76226505	      0.30769882	     -0.07722390	     -0.01366907	     -0.13629493	     10.11680846	     14.86685065	     11.99157688	    -18.00964303	      0.45031898	     -6.43164498	      6.67546267	     31.73181515	     -8.04616191	     -5.28156952	    -66.99648980	     26.60046690	     14.55177903	   -119.67750038	      4.79209879	      4.62044689	     -1.11903880
      3.60500000	     -3.99479008	     -5.60526258	      0.02086737	     -0.07148807	     -0.01318487	     -0.13582209	      9.34847897	     14.75085059	     12.53998540	    -17.62268767	      0.61788328	     -6.48082774	      6.60574813	     32.27334394	     -7.90922478	     -5.55631006	    -66.02308979	     27.01985833	     14.31885920	   -118.82273784	      4.68321804	      4.50368002	     -0.67314900
      3.61000000	     -3.92397121	     -5.47280653	     -0.14126952	     -0.06556879	     -0.01271762	     -0.13550358	      8.49937993	     14.62502723	     12.96832022	    -17.14336030	      0.73448054	     -6.63707875	      6.39422687	     32.76632488	     -7.74948462	     -5.77071281	    -65.06358762	     27.15184447	     14.35870952	   -115.69273050	      4.59289496	      4.39623933	     -0.45042480
      3.61500000	     -3.95255655	     -5.27939174	     -0.40920212	     -0.05978071	     -0.01235568	     -0.13500663	      7.82801698	     14.44157398	     13.36481322	    -16.76889222	      0.95268184	     -6.57689490	      6.45411595	     33.30246641	     -7.60302486	     -6.07619287	    -63.88595912	     27.53843247	     14.24248835	   -115.36677288	      4.58092093	      4.22817700	     -0.03677699
      3.62000000	     -3.79876226	     -5.12483471	     -0.52879216	     -0.05391017	     -0.01190009	     -0.13470713	      6.90909047	     14.27360808	     13.73179474	    -16.29094911	      1.00087346	     -6.81288275	      6.38423924	     33.62632795	     -7.40898719	     -6.25196427	    -62.71600745	     27.69107372	     14.38740748	   -112.81744402	      4.38952664	      4.08868762	      0.20647591
      3.62500000	     -3.89756156	     -4.94775544	     -0.77604921	     -0.04820007	     -0.01175194	     -0.13426979	      6.36490820	     14.09416310	     14.10846733	    -15.98766965	      1.24398941	     -6.71367468	      6.47172504	     34.19270333	     -7.27984215	     -6.55007303	    -61.40530946	     28.05125447	     14.36929286	   -112.49620072	      4.43995635	      3.93533272	      0.53002704
      3.63000000	     -3.73865347	     -4.80544864	     -0.85128253	     -0.04233280	     -0.01140929	     -0.13410368	      5.45885923	     13.91090986	     14.40744445	    -15.51919578	      1.31745655	     -6.88762260	      6.49507238	     34.45660269	     -7.07989733	     -6.71630358	    -60.11471689	     28.00370137	     14.65866054	   -109.22384194	      4.24926223	      3.81495329	      0.72576059
      3.63500000	     -3.86065142	     -4.63697664	     -1.08662834	     -0.03665733	     -0.01139127	     -0.13369553	      4.97714094	     13.73399354	     14.70833853	    -15.26035014	      1.55610805	     -6.80055295	      6.58441821	     34.98500094	     -6.97694485	     -7.02838813	    -58.66573047	     28.29670570	     14.79323204	   -108.90222909	      4.32666958	      3.67895417	      1.08467070
      3.64000000	     -3.73571877	     -4.49952894	     -1.11344553	     -0.03087338	     -0.01121076	     -0.13365677	      4.15662967	     13.53935398	     14.93526341	    -14.85071780	      1.65013720	     -6.92460607	      6.71102226	     35.22703490	     -6.75044697	     -7.13941377	    -57.21777896	     28.23845563	     15.20226220	   -105.93024805	      4.15454083	      3.56260213	      1.18424352
      3.64500000	     -3.88709495	     -4.33248732	     -1.30546258	     -0.02522572	     -0.01132142	     -0.13334434	      3.75099238	     13.35914212	     15.12923840	    -14.64958234	      1.87526395	     -6.89482287	      6.77988167	     35.71807380	     -6.63108291	     -7.44004810	    -55.62013219	     28.45973858	     15.42727690	   -105.62233040	      4.26024987	      3.42457515	      1.50332962
      3.65000000	     -3.83981794	     -4.19835265	     -1.33174317	     -0.01945802	     -0.01132052	     -0.13335296	      3.07590572	     13.16887969	     15.18920338	    -14.31924946	      1.93934523	     -7.02166876	      7.00497409	     35.96585256	     -6.42179108	     -7.59829882	    -54.05302658	     28.18057582	     16.01800095	   -101.68098981	      4.17221878	      3.32126494	      1.63238135
      3.65500000	     -3.97557619	     -4.07760666	     -1.43958829	     -0.01391286	     -0.01158674	     -0.13320378	      2.68326353	     13.02928090	     15.36684418	    -14.15571127	      2.17735278	     -7.00989274	      7.06317385	     36.40008640	     -6.29200553	     -7.79318268	    -52.34961769	     28.39382798	     16.35476351	   -101.51412418	      4.23599462	      3.22607098	      1.79275609
      3.66000000	     -3.99977598	     -3.93538857	     -1.50320581	     -0.00827387	     -0.01171922	     -0.13321748	      2.13969652	     12.83743578	     15.47257660	    -13.92972482	      2.38975901	     -6.97252767	      7.14666071	     36.64381800	     -6.11036055	     -8.02442222	    -50.54171310	     28.51482648	     16.67959147	   -101.16980031	      4.20178573	      3.13075685	      1.99447279
      3.66500000	     -3.96379441	     -3.86127174	     -1.44782572	     -0.00260519	     -0.01194521	     -0.13344770	      1.53440342	     12.69784812	     15.39768662	    -13.66471730	      2.46404964	     -7.04019860	      7.57678005	     36.81959211	     -5.89155562	     -8.07412009	    -48.79904529	     28.13469141	     17.34666018	    -97.33484248	      4.10446582	      3.08795665	      1.98866383
      3.67000000	     -4.12552068	     -3.77454777	     -1.55590654	      0.00294964	     -0.01238267	     -0.13335639	      1.21937379	     12.60083291	     15.48033441	    -13.58469411	      2.67192994	     -7.05511137	      7.59712047	     37.15806624	     -5.81640718	     -8.35530177	    -46.92587226	     28.27947895	     17.78840051	    -97.18669161	      4.19739774	      3.03440348	      2.16130543
      3.67500000	     -4.15732990	     -3.68826073	     -1.59608439	      0.00855745	     -0.01269062	     -0.13347352	      0.73536133	     12.46996159	     15.50907411	    -13.44823990	      2.88400232	     -6.96810589	      7.67448206	     37.30547586	     -5.67274069	     -8.58504119	    -44.97730237	     28.34015903	     18.20180402	    -96.89326844	      4.16037582	      2.99956136	      2.32019544
